<svg height="480pt" viewBox="0 -4 480 480" width="480pt" xmlns="http://www.w3.org/2000/svg"><path d="m40 104h336v160h-336zm0 0" fill="#faeed8"/><g fill="#d6850d"><path d="m320 160h-56c-4.417969 0-8-3.582031-8-8s3.582031-8 8-8h56c4.417969 0 8 3.582031 8 8s-3.582031 8-8 8zm0 0"/><path d="m320 192h-88c-4.417969 0-8-3.582031-8-8s3.582031-8 8-8h88c4.417969 0 8 3.582031 8 8s-3.582031 8-8 8zm0 0"/><path d="m296 224h-64c-4.417969 0-8-3.582031-8-8s3.582031-8 8-8h64c4.417969 0 8 3.582031 8 8s-3.582031 8-8 8zm0 0"/></g><path d="m184 232c-61.855469 0-112-50.144531-112-112v-16h-32v160h336v-32zm0 0" fill="#e8d4b8"/><path d="m0 424h480v48h-480zm0 0" fill="#70dda8"/><path d="m257.359375 424h222.640625v48h-222.640625zm0 0" fill="#40bf7c"/><path d="m356 80c-4.417969 0-8-3.582031-8-8v-40c0-4.417969 3.582031-8 8-8s8 3.582031 8 8v40c0 4.417969-3.582031 8-8 8zm0 0" fill="#d6850d"/><path d="m340 0h32c4.417969 0 8 3.582031 8 8v16c0 4.417969-3.582031 8-8 8h-32c-4.417969 0-8-3.582031-8-8v-16c0-4.417969 3.582031-8 8-8zm0 0" fill="#faa108"/><path d="m356 0h16c4.417969 0 8 3.582031 8 8s-3.582031 8-8 8h-16c-4.417969 0-8-3.582031-8-8s3.582031-8 8-8zm0 0" fill="#f9c170"/><path d="m257.359375 80c-4.417969 0-8-3.582031-8-8v-40c0-4.417969 3.582031-8 8-8s8 3.582031 8 8v40c0 4.417969-3.582031 8-8 8zm0 0" fill="#d6850d"/><path d="m241.359375 0h32c4.417969 0 8 3.582031 8 8v16c0 4.417969-3.582031 8-8 8h-32c-4.417969 0-8-3.582031-8-8v-16c0-4.417969 3.582031-8 8-8zm0 0" fill="#faa108"/><path d="m257.359375 0h16c4.417969 0 8 3.582031 8 8s-3.582031 8-8 8h-16c-4.417969 0-8-3.582031-8-8s3.582031-8 8-8zm0 0" fill="#f9c170"/><path d="m158.640625 80c-4.417969 0-8-3.582031-8-8v-40c0-4.417969 3.582031-8 8-8s8 3.582031 8 8v40c0 4.417969-3.582031 8-8 8zm0 0" fill="#d6850d"/><path d="m142.640625 0h32c4.417969 0 8 3.582031 8 8v16c0 4.417969-3.582031 8-8 8h-32c-4.417969 0-8-3.582031-8-8v-16c0-4.417969 3.582031-8 8-8zm0 0" fill="#faa108"/><path d="m158.640625 0h16c4.417969 0 8 3.582031 8 8s-3.582031 8-8 8h-16c-4.417969 0-8-3.582031-8-8s3.582031-8 8-8zm0 0" fill="#f9c170"/><path d="m60 80c-4.417969 0-8-3.582031-8-8v-40c0-4.417969 3.582031-8 8-8s8 3.582031 8 8v40c0 4.417969-3.582031 8-8 8zm0 0" fill="#d6850d"/><path d="m44 0h32c4.417969 0 8 3.582031 8 8v16c0 4.417969-3.582031 8-8 8h-32c-4.417969 0-8-3.582031-8-8v-16c0-4.417969 3.582031-8 8-8zm0 0" fill="#faa108"/><path d="m60 0h16c4.417969 0 8 3.582031 8 8s-3.582031 8-8 8h-16c-4.417969 0-8-3.582031-8-8s3.582031-8 8-8zm0 0" fill="#f9c170"/><path d="m176 296h64v128h-64zm0 0" fill="#faa108"/><path d="m392 72h-368c-8.835938 0-16 7.164062-16 16v192c0 8.835938 7.164062 16 16 16h368c8.835938 0 16-7.164062 16-16v-192c0-8.835938-7.164062-16-16-16zm-16 192h-336v-160h336zm0 0" fill="#70dda8"/><path d="m80 136h96v96h-96zm0 0" fill="#fd412d"/><path d="m176 296h64v40h-64zm0 0" fill="#d6850d"/><path d="m40 264v-105.921875c-13.675781-25.140625-23.132812-52.355469-28-80.558594-2.554688 2.898438-3.976562 6.617188-4 10.480469v192c0 8.835938 7.164062 16 16 16h248c-44.042969.070312-87.398438-10.933594-126.078125-32zm0 0" fill="#40bf7c"/><path d="m160 216c-35.347656 0-64-28.652344-64-64v-16h-16v96h96v-16zm0 0" fill="#d6332b"/><path d="m456 400h-152c-13.253906 0-24 10.746094-24 24v24h32c0-8.835938 7.164062-16 16-16s16 7.164062 16 16h64c0-8.835938 7.164062-16 16-16s16 7.164062 16 16h32v-32c0-8.835938-7.164062-16-16-16zm0 0" fill="#f9c170"/><path d="m344 448c0 8.835938-7.164062 16-16 16s-16-7.164062-16-16 7.164062-16 16-16 16 7.164062 16 16zm0 0" fill="#fd412d"/><path d="m440 448c0 8.835938-7.164062 16-16 16s-16-7.164062-16-16 7.164062-16 16-16 16 7.164062 16 16zm0 0" fill="#fd412d"/><path d="m336 448c0 4.417969-3.582031 8-8 8s-8-3.582031-8-8 3.582031-8 8-8 8 3.582031 8 8zm0 0" fill="#d6332b"/><path d="m432 448c0 4.417969-3.582031 8-8 8s-8-3.582031-8-8 3.582031-8 8-8 8 3.582031 8 8zm0 0" fill="#d6332b"/><path d="m336 424c-14.554688-.046875-27.242188-9.910156-30.878906-24h-1.121094c-13.253906 0-24 10.746094-24 24v24h32c0-8.835938 7.164062-16 16-16s16 7.164062 16 16h64c0-8.835938 7.164062-16 16-16s16 7.164062 16 16h32v-24zm0 0" fill="#faa108"/><path d="m360 352h32c17.671875 0 32 14.328125 32 32v16h-96v-16c0-17.671875 14.328125-32 32-32zm0 0" fill="#faeed8"/><path d="m354.960938 352.558594c-15.472657 2.46875-26.882813 15.773437-26.960938 31.441406v16h96v-16h-24c-20.117188-.003906-38.097656-12.554688-45.039062-31.441406zm0 0" fill="#e8d4b8"/><path d="m372 352h8v48h-8zm0 0" fill="#f9c170"/><path d="m372 374.960938v25.039062h8v-20.480469c-2.804688-1.265625-5.480469-2.792969-8-4.558593zm0 0" fill="#faa108"/><path d="m192 472h-64l48-48h64zm0 0" fill="#40bf7c"/><path d="m40 472h-32c-4.417969 0-8-3.582031-8-8s3.582031-8 8-8h32c4.417969 0 8 3.582031 8 8s-3.582031 8-8 8zm0 0" fill="#faa108"/><path d="m136 472h-32c-4.417969 0-8-3.582031-8-8s3.582031-8 8-8h32c4.417969 0 8 3.582031 8 8s-3.582031 8-8 8zm0 0" fill="#faa108"/><path d="m232 472h-32c-4.417969 0-8-3.582031-8-8s3.582031-8 8-8h32c4.417969 0 8 3.582031 8 8s-3.582031 8-8 8zm0 0" fill="#faa108"/></svg>